<svg width="145" height="56" viewBox="0 0 145 56" fill="none" xmlns="http://www.w3.org/2000/svg">
<path d="M13.9962 0.946571C17.138 0.946571 19.6226 1.91839 21.4502 3.86201C23.2777 5.7804 24.1915 8.53177 24.1915 12.1161H17.6924C17.6924 10.6016 17.3638 9.40262 16.7067 8.51915C16.0702 7.63568 15.1564 7.19395 13.9654 7.19395C12.5896 7.19395 11.5731 7.72403 10.916 8.78419C10.2795 9.84435 9.96117 11.321 9.96117 13.2141V15.6374C9.96117 17.5053 10.2795 18.9819 10.916 20.0673C11.5731 21.1275 12.569 21.6576 13.9038 21.6576C15.218 21.6576 16.2139 21.2411 16.8915 20.4081C17.5692 19.5751 17.908 18.4014 17.908 16.8868H24.1915C24.1915 20.446 23.2983 23.1721 21.5118 25.0652C19.7458 26.9584 17.2406 27.9049 13.9962 27.9049C10.3821 27.9049 7.64078 26.7691 5.77215 24.4973C3.92405 22.2255 3 18.8683 3 14.4258C3 9.98318 3.92405 6.62601 5.77215 4.35423C7.64078 2.08246 10.3821 0.946571 13.9962 0.946571Z" fill="white"/>
<path d="M35.8444 7.00463C38.6987 7.00463 40.937 7.90072 42.5592 9.6929C44.2019 11.4598 45.0233 14.0471 45.0233 17.4548C45.0233 20.8625 44.2019 23.4624 42.5592 25.2545C40.937 27.0215 38.6987 27.9049 35.8444 27.9049C32.9901 27.9049 30.7519 27.0215 29.1297 25.2545C27.5074 23.4876 26.6963 20.8877 26.6963 17.4548C26.6963 14.0219 27.5074 11.422 29.1297 9.65504C30.7519 7.8881 32.9901 7.00463 35.8444 7.00463ZM35.8444 12.1161C33.832 12.1161 32.8259 13.5423 32.8259 16.3946V18.5528C32.8259 21.3799 33.832 22.7935 35.8444 22.7935C37.8773 22.7935 38.8938 21.3799 38.8938 18.5528C38.8938 18.5528 32.8259 17.4737 38.8938 16.3946C44.9617 15.3155 37.8773 12.1161 35.8444 12.1161Z" fill="white"/>
<path d="M59.8078 27.4506L59.2842 24.6109C58.0932 26.8069 56.3683 27.9049 54.1095 27.9049C51.9124 27.9049 50.2183 27.0215 49.0273 25.2545C47.8363 23.4876 47.2408 20.8751 47.2408 17.4169C47.2408 13.984 47.8363 11.3967 49.0273 9.65504C50.2183 7.8881 51.9124 7.00463 54.1095 7.00463C55.9782 7.00463 57.4977 7.77451 58.6682 9.31427V0H64.7977V27.4506H59.8078ZM56.0192 12.5705C54.2533 12.5705 53.3703 13.8704 53.3703 16.4704V18.4771C53.3703 21.0518 54.2533 22.3391 56.0192 22.3391C56.9228 22.3391 57.6004 21.9479 58.0522 21.1654C58.5039 20.3829 58.7298 19.3606 58.7298 18.0985V16.849C58.7298 15.5869 58.5039 14.5646 58.0522 13.7821C57.6004 12.9744 56.9228 12.5705 56.0192 12.5705Z" fill="white"/>
<path d="M76.9333 7.00463C79.9108 7.00463 82.1799 7.86286 83.7405 9.57931C85.3216 11.2958 86.1122 13.9209 86.1122 17.4548V18.7421H73.9148C73.9148 20.1809 74.1714 21.2663 74.6848 21.9983C75.2187 22.7304 76.0503 23.0964 77.1797 23.0964C78.2065 23.0964 78.956 22.8313 79.4282 22.3012C79.9211 21.7712 80.1675 21.0644 80.1675 20.1809H86.1122C86.1122 22.6041 85.3627 24.4973 83.8637 25.8604C82.3647 27.2234 80.1778 27.9049 77.3029 27.9049C74.2844 27.9049 71.9435 27.0467 70.2802 25.3303C68.6169 23.5886 67.7852 20.9634 67.7852 17.4548C67.7852 14.0219 68.5963 11.422 70.2186 9.65504C71.8408 7.8881 74.079 7.00463 76.9333 7.00463ZM77.1797 11.8132C75.2495 11.8132 74.1714 12.9365 73.9456 15.183H79.9211C79.9211 14.1481 79.6747 13.3277 79.1818 12.7219C78.7095 12.1161 78.0422 11.8132 77.1797 11.8132Z" fill="white"/>
<path d="M13.9962 29.0416C17.138 29.0416 19.6226 30.0134 21.4502 31.9571C23.2777 33.8755 24.1915 36.6268 24.1915 40.2112H17.6924C17.6924 38.6967 17.3638 37.4977 16.7067 36.6142C16.0702 35.7307 15.1564 35.289 13.9654 35.289C12.5896 35.289 11.5731 35.8191 10.916 36.8792C10.2795 37.9394 9.96117 39.4161 9.96117 41.3092V43.7324C9.96117 45.6003 10.2795 47.077 10.916 48.1624C11.5731 49.2225 12.569 49.7526 13.9038 49.7526C15.218 49.7526 16.2139 49.3361 16.8915 48.5032C17.5692 47.6702 17.908 46.4964 17.908 44.9819H24.1915C24.1915 48.541 23.2983 51.2671 21.5118 53.1603C19.7458 55.0534 17.2406 56 13.9962 56C10.3821 56 7.64078 54.8641 5.77215 52.5923C3.92405 50.3206 3 46.9634 3 42.5208C3 38.0782 3.92405 34.7211 5.77215 32.4493C7.64078 30.1775 10.3821 29.0416 13.9962 29.0416Z" fill="white"/>
<path d="M35.8444 35.0997C38.6987 35.0997 40.937 35.9958 42.5592 37.788C44.2019 39.5549 45.0233 42.1422 45.0233 45.5498C45.0233 48.9575 44.2019 51.5574 42.5592 53.3496C40.937 55.1165 38.6987 56 35.8444 56C32.9901 56 30.7519 55.1165 29.1297 53.3496C27.5074 51.5827 26.6963 48.9827 26.6963 45.5498C26.6963 42.1169 27.5074 39.517 29.1297 37.7501C30.7519 35.9832 32.9901 35.0997 35.8444 35.0997ZM35.8444 40.2112C35.8444 44.4897 32.8259 41.6373 32.8259 44.4897V46.6479C32.8259 49.475 33.832 50.8885 35.8444 50.8885C37.8773 50.8885 38.8938 49.475 38.8938 46.6479V44.4897C38.8938 41.6373 35.8444 35.9327 35.8444 40.2112Z" fill="white"/>
<path d="M59.1918 35.0997C61.081 35.0997 62.4979 35.7434 63.4424 37.0307C64.387 38.318 64.8593 40.1733 64.8593 42.5965V55.5457H58.7298V43.5053C58.7298 42.647 58.545 41.9655 58.1754 41.4607C57.8263 40.9306 57.3232 40.6655 56.6661 40.6655C55.9063 40.6655 55.2903 40.9684 54.818 41.5742C54.3457 42.18 54.1095 42.9247 54.1095 43.8081V55.5457H47.98V35.554H53.0007L53.4011 38.5831C54.0377 37.5229 54.8693 36.6773 55.896 36.0463C56.9433 35.4152 58.0419 35.0997 59.1918 35.0997Z" fill="white"/>
<path d="M79.7363 35.0997C81.6254 35.0997 83.0423 35.7434 83.9869 37.0307C84.9315 38.318 85.4038 40.1733 85.4038 42.5965V55.5457H79.2742V43.5053C79.2742 42.647 79.0894 41.9655 78.7198 41.4607C78.3707 40.9306 77.8676 40.6655 77.2105 40.6655C76.4508 40.6655 75.8347 40.9684 75.3624 41.5742C74.8901 42.18 74.654 42.9247 74.654 43.8081V55.5457H68.5245V35.554H73.5451L73.9456 38.5831C74.5821 37.5229 75.4138 36.6773 76.4405 36.0463C77.4877 35.4152 78.5863 35.0997 79.7363 35.0997Z" fill="white"/>
<path d="M97.4778 35.0997C100.455 35.0997 102.724 35.9579 104.285 37.6744C105.866 39.3908 106.657 42.016 106.657 45.5498V46.8372H94.4592C94.4592 48.276 94.7159 49.3614 95.2293 50.0934C95.7632 50.8254 96.5948 51.1914 97.7242 51.1914C98.7509 51.1914 99.5004 50.9264 99.9727 50.3963C100.466 49.8662 100.712 49.1594 100.712 48.276H106.657C106.657 50.6992 105.907 52.5923 104.408 53.9554C102.909 55.3185 100.722 56 97.8474 56C94.8288 56 92.4879 55.1418 90.8246 53.4253C89.1613 51.6836 88.3297 49.0585 88.3297 45.5498C88.3297 42.1169 89.1408 39.517 90.763 37.7501C92.3852 35.9832 94.6235 35.0997 97.4778 35.0997ZM97.7242 39.9083C95.794 39.9083 94.7159 41.0315 94.49 43.2781H100.466C100.466 42.2432 100.219 41.4228 99.7263 40.817C99.254 40.2112 98.5866 39.9083 97.7242 39.9083Z" fill="white"/>
<path d="M118.022 35.0997C120.692 35.0997 122.848 35.8065 124.491 37.22C126.154 38.6083 126.986 40.7413 126.986 43.6188H121.041C121.041 41.3471 120.035 40.2112 118.022 40.2112C116.01 40.2112 115.004 41.6373 115.004 44.4897V46.6479C115.004 49.475 116.051 50.8885 118.145 50.8885C120.24 50.8885 121.287 49.7274 121.287 47.4051H126.986C126.986 50.308 126.154 52.4661 124.491 53.8797C122.848 55.2932 120.692 56 118.022 56C115.168 56 112.93 55.1165 111.307 53.3496C109.685 51.5827 108.874 48.9827 108.874 45.5498C108.874 42.1169 109.685 39.517 111.307 37.7501C112.93 35.9832 115.168 35.0997 118.022 35.0997Z" fill="white"/>
<path d="M141 35.554V40.6655H137.55V48.276C137.55 49.1847 137.673 49.8536 137.92 50.2827C138.166 50.6866 138.618 50.8885 139.275 50.8885H141V55.3185C140.507 55.5204 139.871 55.6845 139.09 55.8107C138.31 55.9369 137.632 56 137.057 56C135.25 56 133.854 55.5961 132.868 54.7884C131.903 53.9807 131.421 52.605 131.421 50.6613V40.6655H129.141V35.554H131.667L132.992 29.496H137.55V35.554H141Z" fill="white"/>
<path d="M97.5542 15.1786L109.566 19.3559V23.8839L92 17.4426V12.8827L109.566 6.40944V10.9694L97.5542 15.1786Z" fill="#166197"/>
<path d="M111.78 25L117.133 0H121.182L115.862 25H111.78Z" fill="#166197"/>
<path d="M141 17.4426L123.434 23.8839V19.3559L135.446 15.1786L123.434 10.9694V6.40944L141 12.8827V17.4426Z" fill="#166197"/>
</svg>
