<svg width="63" height="21" viewBox="0 0 63 21" fill="none" xmlns="http://www.w3.org/2000/svg">
<path d="M9.85901 0C12.6759 0 14.9036 0.757022 16.5422 2.27107C18.1807 3.76545 19 5.90871 19 8.70084H13.173C13.173 7.52107 12.8784 6.58708 12.2892 5.89888C11.7185 5.21067 10.8992 4.86657 9.8314 4.86657C8.59787 4.86657 7.68653 5.2795 7.09738 6.10534C6.52665 6.93118 6.24128 8.08146 6.24128 9.55618V11.4438C6.24128 12.8989 6.52665 14.0492 7.09738 14.8947C7.68653 15.7205 8.57946 16.1334 9.77616 16.1334C10.9545 16.1334 11.8474 15.809 12.4549 15.1601C13.0625 14.5112 13.3663 13.5969 13.3663 12.4171H19C19 15.1896 18.1991 17.3132 16.5974 18.7879C15.014 20.2626 12.7679 21 9.85901 21C6.6187 21 4.16085 20.1152 2.48547 18.3455C0.828488 16.5758 0 13.9607 0 10.5C0 7.03933 0.828488 4.42416 2.48547 2.6545C4.16085 0.884835 6.6187 0 9.85901 0Z" fill="white"/>
<path d="M23.4897 4.32869C24.5486 4.32869 25.3789 4.61472 25.9807 5.18678C26.5901 5.75078 26.8948 6.57664 26.8948 7.66435C26.8948 8.75206 26.5901 9.58195 25.9807 10.154C25.3789 10.718 24.5486 11 23.4897 11C22.4308 11 21.6005 10.718 20.9987 10.154C20.3969 9.59 20.0959 8.76012 20.0959 7.66435C20.0959 6.56858 20.3969 5.73869 20.9987 5.17469C21.6005 4.61069 22.4308 4.32869 23.4897 4.32869ZM23.4897 5.96026C22.7431 5.96026 22.3699 6.41549 22.3699 7.32595V8.01483C22.3699 8.91723 22.7431 9.36843 23.4897 9.36843C24.2438 9.36843 24.6209 8.91723 24.6209 8.01483V7.32595C24.6209 6.41549 24.2438 5.96026 23.4897 5.96026Z" fill="#2D7AAE"/>
<path d="M32.3796 10.855L32.1853 9.94854C31.7435 10.6495 31.1036 11 30.2656 11C29.4505 11 28.822 10.718 28.3802 10.154C27.9384 9.59 27.7175 8.75609 27.7175 7.65226C27.7175 6.55649 27.9384 5.73064 28.3802 5.17469C28.822 4.61069 29.4505 4.32869 30.2656 4.32869C30.9588 4.32869 31.5226 4.57444 31.9568 5.06592V2.09284H34.2307V10.855H32.3796ZM30.9741 6.10529C30.3189 6.10529 29.9914 6.52024 29.9914 7.35012V7.99066C29.9914 8.81249 30.3189 9.2234 30.9741 9.2234C31.3093 9.2234 31.5606 9.09852 31.7282 8.84875C31.8958 8.59898 31.9796 8.27266 31.9796 7.8698V7.47098C31.9796 7.06812 31.8958 6.74181 31.7282 6.49203C31.5606 6.23421 31.3093 6.10529 30.9741 6.10529Z" fill="#2D7AAE"/>
<path d="M38.7327 4.32869C39.8373 4.32869 40.6791 4.60264 41.258 5.15052C41.8446 5.69841 42.1379 6.53635 42.1379 7.66435V8.07526H37.6129C37.6129 8.53452 37.7081 8.88097 37.8986 9.11463C38.0966 9.34829 38.4051 9.46512 38.8241 9.46512C39.205 9.46512 39.4831 9.38052 39.6583 9.21132C39.8411 9.04212 39.9325 8.81652 39.9325 8.53452H42.1379C42.1379 9.308 41.8598 9.91229 41.3037 10.3474C40.7476 10.7825 39.9363 11 38.8698 11C37.75 11 36.8816 10.7261 36.2645 10.1782C35.6475 9.62223 35.339 8.78429 35.339 7.66435C35.339 6.56858 35.6399 5.73869 36.2417 5.17469C36.8435 4.61069 37.6738 4.32869 38.7327 4.32869ZM38.8241 5.86358C38.1081 5.86358 37.7081 6.22212 37.6243 6.93921H39.8411C39.8411 6.60886 39.7497 6.34701 39.5669 6.15364C39.3917 5.96026 39.1441 5.86358 38.8241 5.86358Z" fill="#2D7AAE"/>
<path d="M23.4897 14.3287C24.5486 14.3287 25.3789 14.6147 25.9807 15.1868C26.5901 15.7508 26.8948 16.5766 26.8948 17.6643C26.8948 18.7521 26.5901 19.5819 25.9807 20.154C25.3789 20.718 24.5486 21 23.4897 21C22.4308 21 21.6005 20.718 20.9987 20.154C20.3969 19.59 20.0959 18.7601 20.0959 17.6643C20.0959 16.5686 20.3969 15.7387 20.9987 15.1747C21.6005 14.6107 22.4308 14.3287 23.4897 14.3287ZM23.4897 15.9603C22.7431 15.9603 22.3699 16.4155 22.3699 17.3259V18.0148C22.3699 18.9172 22.7431 19.3684 23.4897 19.3684C24.2438 19.3684 24.6209 18.9172 24.6209 18.0148V17.3259C24.6209 16.4155 24.2438 15.9603 23.4897 15.9603Z" fill="white"/>
<path d="M32.151 14.3287C32.8519 14.3287 33.3775 14.5341 33.7279 14.9451C34.0783 15.356 34.2535 15.9482 34.2535 16.7217V20.855H31.9796V17.0117C31.9796 16.7378 31.9111 16.5202 31.7739 16.3591C31.6444 16.1899 31.4578 16.1053 31.214 16.1053C30.9322 16.1053 30.7036 16.202 30.5284 16.3953C30.3532 16.5887 30.2656 16.8264 30.2656 17.1084V20.855H27.9917V14.4737H29.8543L30.0028 15.4406C30.239 15.1022 30.5475 14.8323 30.9284 14.6308C31.3169 14.4294 31.7244 14.3287 32.151 14.3287Z" fill="white"/>
<path d="M39.7725 14.3287C40.4734 14.3287 40.999 14.5341 41.3494 14.9451C41.6998 15.356 41.8751 15.9482 41.8751 16.7217V20.855H39.6011V17.0117C39.6011 16.7378 39.5326 16.5202 39.3955 16.3591C39.266 16.1899 39.0793 16.1053 38.8356 16.1053C38.5537 16.1053 38.3252 16.202 38.15 16.3953C37.9747 16.5887 37.8871 16.8264 37.8871 17.1084V20.855H35.6132V14.4737H37.4758L37.6243 15.4406C37.8605 15.1022 38.169 14.8323 38.5499 14.6308C38.9384 14.4294 39.3459 14.3287 39.7725 14.3287Z" fill="white"/>
<path d="M46.3542 14.3287C47.4588 14.3287 48.3006 14.6026 48.8795 15.1505C49.4661 15.6984 49.7594 16.5363 49.7594 17.6643V18.0753H45.2344C45.2344 18.5345 45.3296 18.881 45.5201 19.1146C45.7181 19.3483 46.0267 19.4651 46.4456 19.4651C46.8265 19.4651 47.1046 19.3805 47.2798 19.2113C47.4626 19.0421 47.554 18.8165 47.554 18.5345H49.7594C49.7594 19.308 49.4813 19.9123 48.9252 20.3474C48.3691 20.7825 47.5578 21 46.4913 21C45.3715 21 44.5031 20.7261 43.8861 20.1782C43.269 19.6222 42.9605 18.7843 42.9605 17.6643C42.9605 16.5686 43.2614 15.7387 43.8632 15.1747C44.465 14.6107 45.2954 14.3287 46.3542 14.3287ZM46.4456 15.8636C45.7296 15.8636 45.3296 16.2221 45.2458 16.9392H47.4626C47.4626 16.6089 47.3712 16.347 47.1884 16.1536C47.0132 15.9603 46.7656 15.8636 46.4456 15.8636Z" fill="white"/>
<path d="M53.9757 14.3287C54.9661 14.3287 55.7659 14.5543 56.3754 15.0055C56.9924 15.4486 57.3009 16.1295 57.3009 17.048H55.0956C55.0956 16.3228 54.7223 15.9603 53.9757 15.9603C53.2292 15.9603 52.8559 16.4155 52.8559 17.3259V18.0148C52.8559 18.9172 53.2444 19.3684 54.0215 19.3684C54.7985 19.3684 55.187 18.9978 55.187 18.2565H57.3009C57.3009 19.1831 56.9924 19.872 56.3754 20.3232C55.7659 20.7744 54.9661 21 53.9757 21C52.9169 21 52.0865 20.718 51.4847 20.154C50.8829 19.59 50.582 18.7601 50.582 17.6643C50.582 16.5686 50.8829 15.7387 51.4847 15.1747C52.0865 14.6107 52.9169 14.3287 53.9757 14.3287Z" fill="white"/>
<path d="M62.5 14.4737V16.1053H61.2202V18.5345C61.2202 18.8246 61.2659 19.0381 61.3573 19.1751C61.4487 19.304 61.6163 19.3684 61.8601 19.3684H62.5V20.7825C62.3171 20.8469 62.081 20.8993 61.7915 20.9396C61.502 20.9799 61.2507 21 61.0374 21C60.367 21 59.849 20.8711 59.4833 20.6133C59.1253 20.3554 58.9463 19.9163 58.9463 19.2959V16.1053H58.1007V14.4737H59.0377L59.529 12.54H61.2202V14.4737H62.5Z" fill="white"/>
<path d="M45.8136 8.46429L49.7358 9.96811V11.5982L44 9.27934V7.63776L49.7358 5.3074V6.94898L45.8136 8.46429Z" fill="#2D7AAE"/>
<path d="M50.4586 12L52.2067 3H53.5287L51.7915 12H50.4586Z" fill="#2D7AAE"/>
<path d="M60 9.27934L54.2642 11.5982V9.96811L58.1864 8.46429L54.2642 6.94898V5.3074L60 7.63776V9.27934Z" fill="#2D7AAE"/>
<mask id="mask0_5_19" style="mask-type:alpha" maskUnits="userSpaceOnUse" x="0" y="0" width="19" height="21">
<path d="M9.85901 0C12.6759 0 14.9036 0.757022 16.5422 2.27107C18.1807 3.76545 19 5.90871 19 8.70084H13.173C13.173 7.52107 12.8784 6.58708 12.2892 5.89888C11.7185 5.21067 10.8992 4.86657 9.8314 4.86657C8.59787 4.86657 7.68653 5.2795 7.09738 6.10534C6.52665 6.93118 6.24128 8.08146 6.24128 9.55618V11.4438C6.24128 12.8989 6.52665 14.0492 7.09738 14.8947C7.68653 15.7205 8.57946 16.1334 9.77616 16.1334C10.9545 16.1334 11.8474 15.809 12.4549 15.1601C13.0625 14.5112 13.3663 13.5969 13.3663 12.4171H19C19 15.1896 18.1991 17.3132 16.5974 18.7879C15.014 20.2626 12.7679 21 9.85901 21C6.6187 21 4.16085 20.1152 2.48547 18.3455C0.828488 16.5758 0 13.9607 0 10.5C0 7.03933 0.828488 4.42416 2.48547 2.6545C4.16085 0.884835 6.6187 0 9.85901 0Z" fill="white"/>
</mask>
<g mask="url(#mask0_5_19)">
<rect x="-2" y="-4" width="22" height="15" fill="#2D7AAE"/>
</g>
</svg>
